<svg xmlns="http://www.w3.org/2000/svg" viewBox="0 0 1024 1024" role="img" aria-labelledby="app-icon-title app-icon-desc">
  <title id="app-icon-title">AI Image Generator logo</title>
  <desc id="app-icon-desc">A chat bubble containing an image frame and AI spark.</desc>
  <defs>
    <linearGradient id="icon-bg" x1="144" x2="880" y1="112" y2="928" gradientUnits="userSpaceOnUse">
      <stop offset="0" stop-color="#0f766e"/>
      <stop offset="0.52" stop-color="#0891b2"/>
      <stop offset="1" stop-color="#facc15"/>
    </linearGradient>
    <linearGradient id="icon-bubble" x1="240" x2="768" y1="272" y2="752" gradientUnits="userSpaceOnUse">
      <stop offset="0" stop-color="#ffffff"/>
      <stop offset="1" stop-color="#dff7fb"/>
    </linearGradient>
    <linearGradient id="icon-frame" x1="320" x2="720" y1="384" y2="672" gradientUnits="userSpaceOnUse">
      <stop offset="0" stop-color="#164e63"/>
      <stop offset="1" stop-color="#0f766e"/>
    </linearGradient>
    <filter id="icon-shadow" x="-20%" y="-20%" width="140%" height="150%" color-interpolation-filters="sRGB">
      <feDropShadow dx="0" dy="48" stdDeviation="48" flood-color="#0f172a" flood-opacity="0.22"/>
    </filter>
  </defs>

  <rect width="1024" height="1024" rx="224" fill="url(#icon-bg)"/>
  <circle cx="768" cy="240" r="80" fill="#fde68a" opacity="0.95"/>
  <circle cx="224" cy="816" r="128" fill="#22d3ee" opacity="0.22"/>
  <path d="M208 296c0-67 53-120 120-120h400c67 0 120 53 120 120v304c0 67-53 120-120 120H502L363 832c-24 20-59 2-59-29v-98c-58-12-96-62-96-122V296Z" fill="url(#icon-bubble)" filter="url(#icon-shadow)"/>
  <rect x="320" y="368" width="400" height="272" rx="56" fill="url(#icon-frame)"/>
  <path d="m360 579 96-96c18-18 45-18 62 0l59 59 36-36c16-16 43-16 59 0l48 48v38c0 27-21 48-48 48H376c-18 0-32-14-32-32 0-11 6-22 16-29Z" fill="#ecfeff"/>
  <circle cx="642" cy="445" r="40" fill="#facc15"/>
  <path d="M774 302c13 53 44 84 97 97-53 13-84 44-97 97-13-53-44-84-97-97 53-13 84-44 97-97Z" fill="#fef9c3"/>
  <path d="M284 298c8 35 28 55 63 64-35 8-55 28-63 64-9-36-29-56-64-64 35-9 55-29 64-64Z" fill="#67e8f9"/>
</svg>
